<?xml version="1.0" encoding="UTF-8"?>
<svg version="1.1" xmlns="http://www.w3.org/2000/svg" width="500" height="500">
<path d="M0 0 C-1.73062619 3.79803617 -3.52221238 5.33110129 -7 7.6875 C-15.61711427 13.74888221 -23.61424426 20.82705733 -30.4375 28.875 C-33 31 -33 31 -35.625 30.8359375 C-39.76553763 29.81038767 -43.60088395 28.31468575 -47.5625 26.75 C-54.65200834 24.04411278 -61.73989188 21.87075108 -69.125 20.125 C-69.97650635 19.92229492 -70.8280127 19.71958984 -71.70532227 19.51074219 C-82.42769936 17.07589315 -92.97261229 16.75904125 -103.9375 16.75 C-104.67332306 16.74932526 -105.40914612 16.74865051 -106.16726685 16.74795532 C-117.37589334 16.76427198 -128.08581029 17.31018379 -139 20 C-139.70479492 20.16097168 -140.40958984 20.32194336 -141.13574219 20.48779297 C-181.38494905 29.78637804 -217.36260454 55.3670624 -239.4309082 90.27905273 C-262.64805879 128.1528123 -270.91138538 173.23121163 -260.75 216.625 C-256.96542053 231.97404058 -251.57585691 246.12841713 -244 260 C-243.66129883 260.62616211 -243.32259766 261.25232422 -242.97363281 261.89746094 C-227.54166978 290.05016842 -203.43450409 312.42782856 -175 327 C-173.98534668 327.5256958 -173.98534668 327.5256958 -172.95019531 328.06201172 C-132.52952292 348.76877564 -84.86850955 351.61730221 -41.72900391 337.92724609 C-16.91504424 329.49609394 5.10388216 316.14403354 24 298 C24.89074219 297.16082031 25.78148437 296.32164062 26.69921875 295.45703125 C49.77463525 273.15401363 64.9440635 243.59137057 72.8125 212.6875 C73.00739014 211.92469727 73.20228027 211.16189453 73.40307617 210.37597656 C76.52759581 197.39317746 77.37599125 184.60060925 77.3125 171.3125 C77.31067719 170.51941437 77.30885437 169.72632874 77.30697632 168.90921021 C77.26106667 157.03775229 76.77439239 145.58967176 74 134 C73.72663818 132.81349854 73.72663818 132.81349854 73.44775391 131.60302734 C71.26446955 122.27345382 68.65094119 113.36308949 64.8203125 104.56640625 C63.89212178 101.66249529 63.6856257 100.72985432 65 98 C66.72472677 96.01014994 68.42849003 94.19807822 70.3125 92.375 C70.79912109 91.88515625 71.28574219 91.3953125 71.78710938 90.890625 C74.33841979 88.37708634 76.66069819 86.34841166 80 85 C89.51290485 103.55016446 95.81207653 123.41313725 99 144 C99.11569336 144.72251953 99.23138672 145.44503906 99.35058594 146.18945312 C107.42915247 198.68814957 92.82498068 252.43797606 61.6875 295 C51.08759461 308.86141474 39.69225255 321.14748807 26 332 C25.03449219 332.7940625 24.06898438 333.588125 23.07421875 334.40625 C-16.60384893 366.26970461 -69.8062911 380.17057919 -120.10546875 375.5 C-162.5798024 370.80198421 -202.27561077 353.79402396 -234 325 C-235.04490483 324.07476579 -236.09048777 323.15029687 -237.13671875 322.2265625 C-254.70089463 306.59052943 -268.3732268 287.9198441 -279 267 C-279.35787598 266.30729004 -279.71575195 265.61458008 -280.08447266 264.90087891 C-303.74563067 218.72293026 -307.48221725 163.65009151 -292.15234375 114.26953125 C-283.26872334 87.00335431 -269.29604846 62.25980561 -250 41 C-249.07476579 39.95509517 -248.15029687 38.90951223 -247.2265625 37.86328125 C-231.59052943 20.29910537 -212.9198441 6.6267732 -192 -4 C-191.30729004 -4.35787598 -190.61458008 -4.71575195 -189.90087891 -5.08447266 C-129.44716752 -36.06040077 -59.04119166 -31.41107734 0 0 Z " fill="#1C1C1C" transform="translate(350,75)"/>
<path d="M0 0 C0.33 0.99 0.66 1.98 1 3 C0.21238281 3.59425781 -0.57523437 4.18851562 -1.38671875 4.80078125 C-13.06964591 13.66937438 -24.16910722 23.1094638 -35 33 C-35.94488281 33.85207031 -36.88976562 34.70414063 -37.86328125 35.58203125 C-47.08807636 43.92562043 -56.17702368 52.47756167 -64.2421875 61.96484375 C-66.3526414 64.40828038 -68.55292879 66.75918821 -70.75 69.125 C-75.99523219 74.88447064 -80.79497195 80.92612836 -85.53613281 87.10351562 C-87.01786728 89.0231476 -88.51879597 90.92641194 -90.0234375 92.828125 C-117.21747694 127.44527613 -138.79248748 166.47408114 -155.30322266 207.21582031 C-155.73296387 208.2725293 -156.16270508 209.32923828 -156.60546875 210.41796875 C-156.98727295 211.37082764 -157.36907715 212.32368652 -157.76245117 213.30541992 C-162.1048764 222.76041049 -169.56838557 229.0826393 -179.1875 232.8125 C-186.05141824 234.83058864 -194.28148642 236.3343725 -201.11328125 233.8828125 C-208.29908931 229.19599317 -210.87107201 222.43192262 -214.1875 214.8125 C-224.00434157 192.91071363 -235.08580317 172.14218439 -251 154 C-252.12535156 152.71029297 -252.12535156 152.71029297 -253.2734375 151.39453125 C-260.93761185 142.74944721 -268.83964091 135.05798159 -278 128 C-276.4644083 123.8605789 -273.48373802 121.68723866 -270.0625 119.125 C-269.1950415 118.46854492 -269.1950415 118.46854492 -268.31005859 117.79882812 C-258.56048125 110.56742427 -248.48825088 104.73277978 -236 106 C-215.80741419 109.49792825 -204.35117238 131.57923022 -193.43798828 146.984375 C-192.47358679 148.33617445 -191.49780171 149.6799195 -190.51123047 151.015625 C-187 155.7909971 -187 155.7909971 -187 158 C-186.34 158 -185.68 158 -185 158 C-184.59164917 156.91368286 -184.59164917 156.91368286 -184.17504883 155.80541992 C-182.17477051 151.02977103 -179.3782979 146.72566854 -176.6875 142.3125 C-176.06520508 141.29172363 -175.44291016 140.27094727 -174.80175781 139.21923828 C-168.98730856 129.79465424 -162.66890472 120.83376095 -156 112 C-155.55172852 111.40010254 -155.10345703 110.80020508 -154.64160156 110.18212891 C-145.71846383 98.24971195 -136.0455063 86.9957569 -126 76 C-125.10395069 75.01061222 -124.20812723 74.02101987 -123.3125 73.03125 C-115.92792075 64.89287928 -108.42912511 56.95353349 -100.07421875 49.796875 C-97.79842282 47.8253757 -95.59077333 45.78865605 -93.375 43.75 C-87.71789127 38.64819028 -81.76594189 33.96866901 -75.72851562 29.33007812 C-74.09958013 28.07662606 -72.47918402 26.81209896 -70.859375 25.546875 C-49.27910245 8.93797413 -26.78603286 2.24981501 0 0 Z " fill="#12BA19" transform="translate(436,94)"/>
</svg>
